<?xml version="1.0" standalone="yes"?>
<svg xmlns="http://www.w3.org/2000/svg" width="537" height="536" viewBox="0 0 537 537">
<path style="fill:#ffffff; stroke:none;" d="M0 0L0 35C1.8822 30.816 2.48861 26.1999 4.6088 22C9.83283 11.6517 20.3815 2.74152 32 1C28.3014 -0.552063 23.9828 0 20 0L0 0z"/>
<path style="fill:#2967b3; stroke:none;" d="M32 0.464539C17.7788 3.02875 5.77566 14.1628 1.78164 28C-1.16515 38.209 0 49.5012 0 60L0 113L0 407L0 480C0 493.817 -1.05355 508.221 7.61265 520C19.478 536.127 35.9519 536 54 536L130 536L385 536L465 536C478.086 536 493.181 538.066 506 535.331C519.797 532.387 531.308 521.548 535.218 508C538.165 497.791 537 486.499 537 476L537 423L537 127L537 55C537 41.0323 537.901 26.5862 528.621 15C516.202 -0.506348 500.04 0 482 0L405 0L154 0L73 0C59.809 0 44.9912 -1.87787 32 0.464539z"/>
<path style="fill:#ffffff; stroke:none;" d="M505 0C508.866 2.10461 513.192 3.11731 517 5.46838C527.228 11.783 535.441 22.7751 536 35C537.552 31.3015 537 26.9828 537 23L537 0L505 0M111 75.4645C105.675 76.4246 100.602 78.6616 96 81.4637C62.0033 102.162 71.1131 154.486 109 164.241C115.717 165.97 122.233 165.84 129 164.539C167.122 157.213 176.784 108.075 148 84.3287C143.416 80.5473 137.73 77.7091 132 76.1589C125.581 74.4225 117.547 74.2841 111 75.4645M285 236L285 202L210 202L210 456L288 456L288 357C288 336.19 286.297 314.096 292.746 294C301.254 267.489 337.724 253.059 360.999 271.39C377.473 284.365 378 307.875 378 327L378 456L456 456C456 427.422 454.789 398.548 456.039 370C456.934 349.575 456.934 329.425 456.039 309C455.217 290.232 454.785 272.266 449.573 254C445.688 240.387 439.24 227.056 428.961 217.09C407.001 195.801 367.89 190.288 339 197.475C324.474 201.089 310.782 208.639 300.039 219.09C294.817 224.17 291.365 232.518 285 236M81 202L81 456L159 456L159 202L81 202M0 501L0 536L32 536C21.9805 530.546 12.7753 527.413 6.27161 517C3.09517 511.914 2.37289 506.275 0 501M536 501C535.266 517.036 520.806 532.631 505 535C508.699 536.552 513.017 536 517 536L537 536L537 513C537 509.017 537.552 504.699 536 501z"/>
</svg>
