<svg width="20" height="16" viewBox="0 0 20 16" fill="none" xmlns="http://www.w3.org/2000/svg">
<path d="M4.82 8C5.84666 8.09333 6.68666 8.49 7.34 9.19C7.99333 9.89 8.32 10.7767 8.32 11.85C8.32 13.0167 7.97 13.9733 7.27 14.72C6.57 15.42 5.68333 15.77 4.61 15.77C3.39666 15.77 2.41666 15.3267 1.67 14.44C0.969998 13.5533 0.619998 12.1767 0.619998 10.31C0.619998 6.71666 1.81 3.61333 4.19 0.999997C4.65666 0.53333 5.19333 0.299997 5.8 0.299997C6.31333 0.299997 6.75667 0.486664 7.13 0.859998C7.50333 1.18666 7.69 1.58333 7.69 2.05C7.69 2.56333 7.50333 3.00667 7.13 3.38C5.91666 4.64 5.14666 6.18 4.82 8ZM16.44 8C17.4667 8.09333 18.3067 8.49 18.96 9.19C19.6133 9.89 19.94 10.7767 19.94 11.85C19.94 13.0167 19.59 13.9733 18.89 14.72C18.19 15.42 17.3033 15.77 16.23 15.77C15.0167 15.77 14.0367 15.3267 13.29 14.44C12.59 13.5533 12.24 12.1767 12.24 10.31C12.24 6.71666 13.43 3.61333 15.81 0.999997C16.2767 0.53333 16.8133 0.299997 17.42 0.299997C17.9333 0.299997 18.3767 0.486664 18.75 0.859998C19.1233 1.18666 19.31 1.58333 19.31 2.05C19.31 2.56333 19.1233 3.00667 18.75 3.38C17.5367 4.64 16.7667 6.18 16.44 8Z" fill="#323E48"/>
</svg>
